<mxfile host="app.diagrams.net" agent="Mozilla/5.0 (Windows NT 10.0; Win64; x64) AppleWebKit/537.36 (KHTML, like Gecko) Chrome/138.0.0.0 Safari/537.36" version="28.0.6">
  <diagram name="Page-1" id="uKyPBy3g1jVxDce5RKM4">
    <mxGraphModel dx="1042" dy="527" grid="1" gridSize="10" guides="1" tooltips="1" connect="1" arrows="1" fold="1" page="1" pageScale="1" pageWidth="850" pageHeight="1100" math="0" shadow="0">
      <root>
        <mxCell id="0" />
        <mxCell id="1" parent="0" />
        <mxCell id="Tyzu09ZwuiHIX_BPrVbN-1" style="edgeStyle=orthogonalEdgeStyle;rounded=0;orthogonalLoop=1;jettySize=auto;html=1;exitX=0.5;exitY=1;exitDx=0;exitDy=0;entryX=0.5;entryY=0;entryDx=0;entryDy=0;" edge="1" parent="1" target="Tyzu09ZwuiHIX_BPrVbN-5">
          <mxGeometry relative="1" as="geometry">
            <mxPoint x="190" y="130" as="sourcePoint" />
          </mxGeometry>
        </mxCell>
        <mxCell id="Tyzu09ZwuiHIX_BPrVbN-24" style="edgeStyle=orthogonalEdgeStyle;rounded=0;orthogonalLoop=1;jettySize=auto;html=1;exitX=1;exitY=0.5;exitDx=0;exitDy=0;entryX=0;entryY=0.5;entryDx=0;entryDy=0;" edge="1" parent="1" source="Tyzu09ZwuiHIX_BPrVbN-5" target="Tyzu09ZwuiHIX_BPrVbN-9">
          <mxGeometry relative="1" as="geometry" />
        </mxCell>
        <mxCell id="Tyzu09ZwuiHIX_BPrVbN-5" value="&lt;div&gt;&lt;br&gt;&lt;/div&gt;&lt;div&gt;&lt;span style=&quot;background-color: transparent; color: light-dark(rgb(0, 0, 0), rgb(255, 255, 255));&quot;&gt;&lt;br&gt;&lt;/span&gt;&lt;/div&gt;&lt;div&gt;&lt;span style=&quot;background-color: transparent; color: light-dark(rgb(0, 0, 0), rgb(255, 255, 255));&quot;&gt;Parsing the data to extract diagnostic elements&lt;/span&gt;&lt;/div&gt;" style="ellipse;whiteSpace=wrap;html=1;aspect=fixed;" vertex="1" parent="1">
          <mxGeometry x="130" y="211" width="120" height="120" as="geometry" />
        </mxCell>
        <mxCell id="Tyzu09ZwuiHIX_BPrVbN-6" value="0.1.1" style="whiteSpace=wrap;html=1;strokeWidth=0;strokeColor=light-dark(default, #ffffff);" vertex="1" parent="1">
          <mxGeometry x="170" y="220" width="40" height="20" as="geometry" />
        </mxCell>
        <mxCell id="Tyzu09ZwuiHIX_BPrVbN-7" value="" style="endArrow=none;html=1;rounded=0;exitX=0.037;exitY=0.301;exitDx=0;exitDy=0;exitPerimeter=0;entryX=0.954;entryY=0.303;entryDx=0;entryDy=0;entryPerimeter=0;" edge="1" parent="1">
          <mxGeometry width="50" height="50" relative="1" as="geometry">
            <mxPoint x="135.44" y="246.12" as="sourcePoint" />
            <mxPoint x="245.48000000000002" y="246.36" as="targetPoint" />
          </mxGeometry>
        </mxCell>
        <mxCell id="Tyzu09ZwuiHIX_BPrVbN-8" style="edgeStyle=orthogonalEdgeStyle;rounded=0;orthogonalLoop=1;jettySize=auto;html=1;exitX=1;exitY=0.5;exitDx=0;exitDy=0;entryX=0;entryY=0.5;entryDx=0;entryDy=0;" edge="1" parent="1" source="Tyzu09ZwuiHIX_BPrVbN-9" target="Tyzu09ZwuiHIX_BPrVbN-12">
          <mxGeometry relative="1" as="geometry" />
        </mxCell>
        <mxCell id="Tyzu09ZwuiHIX_BPrVbN-9" value="&lt;div&gt;&lt;br&gt;&lt;/div&gt;&lt;div&gt;&lt;span style=&quot;background-color: transparent; color: light-dark(rgb(0, 0, 0), rgb(255, 255, 255));&quot;&gt;Cleaning and Data Formatting&lt;/span&gt;&lt;/div&gt;" style="ellipse;whiteSpace=wrap;html=1;aspect=fixed;" vertex="1" parent="1">
          <mxGeometry x="340" y="211" width="120" height="120" as="geometry" />
        </mxCell>
        <mxCell id="Tyzu09ZwuiHIX_BPrVbN-10" value="0.1.2" style="whiteSpace=wrap;html=1;strokeWidth=0;strokeColor=light-dark(default, #ffffff);" vertex="1" parent="1">
          <mxGeometry x="380" y="220" width="40" height="20" as="geometry" />
        </mxCell>
        <mxCell id="Tyzu09ZwuiHIX_BPrVbN-11" value="" style="edgeStyle=orthogonalEdgeStyle;rounded=0;orthogonalLoop=1;jettySize=auto;html=1;entryX=0.5;entryY=1;entryDx=0;entryDy=0;" edge="1" parent="1" target="Tyzu09ZwuiHIX_BPrVbN-23">
          <mxGeometry relative="1" as="geometry">
            <mxPoint x="600" y="210" as="sourcePoint" />
            <mxPoint x="600" y="130" as="targetPoint" />
          </mxGeometry>
        </mxCell>
        <mxCell id="Tyzu09ZwuiHIX_BPrVbN-12" value="&lt;div&gt;&lt;br&gt;&lt;/div&gt;&lt;div&gt;&lt;br&gt;&lt;/div&gt;Semantic Data Chunking" style="ellipse;whiteSpace=wrap;html=1;aspect=fixed;" vertex="1" parent="1">
          <mxGeometry x="538" y="211" width="120" height="120" as="geometry" />
        </mxCell>
        <mxCell id="Tyzu09ZwuiHIX_BPrVbN-13" value="0.1.3" style="whiteSpace=wrap;html=1;strokeWidth=0;strokeColor=light-dark(default, #ffffff);" vertex="1" parent="1">
          <mxGeometry x="580" y="220" width="40" height="20" as="geometry" />
        </mxCell>
        <mxCell id="Tyzu09ZwuiHIX_BPrVbN-15" value="" style="endArrow=none;html=1;rounded=0;exitX=0.037;exitY=0.301;exitDx=0;exitDy=0;exitPerimeter=0;entryX=0.954;entryY=0.303;entryDx=0;entryDy=0;entryPerimeter=0;" edge="1" parent="1">
          <mxGeometry width="50" height="50" relative="1" as="geometry">
            <mxPoint x="344.98" y="247" as="sourcePoint" />
            <mxPoint x="455.02" y="247.24" as="targetPoint" />
          </mxGeometry>
        </mxCell>
        <mxCell id="Tyzu09ZwuiHIX_BPrVbN-16" value="" style="endArrow=none;html=1;rounded=0;exitX=0.037;exitY=0.301;exitDx=0;exitDy=0;exitPerimeter=0;entryX=0.954;entryY=0.303;entryDx=0;entryDy=0;entryPerimeter=0;" edge="1" parent="1">
          <mxGeometry width="50" height="50" relative="1" as="geometry">
            <mxPoint x="544.98" y="247" as="sourcePoint" />
            <mxPoint x="655.02" y="247.24" as="targetPoint" />
          </mxGeometry>
        </mxCell>
        <mxCell id="Tyzu09ZwuiHIX_BPrVbN-17" value="&lt;font style=&quot;font-size: 10px;&quot;&gt;Parsed Data&lt;/font&gt;" style="text;html=1;align=center;verticalAlign=middle;resizable=0;points=[];autosize=1;strokeColor=none;fillColor=none;" vertex="1" parent="1">
          <mxGeometry x="250" y="240" width="80" height="30" as="geometry" />
        </mxCell>
        <mxCell id="Tyzu09ZwuiHIX_BPrVbN-18" value="&lt;font style=&quot;font-size: 10px;&quot;&gt;Cleaned Data&lt;/font&gt;" style="text;html=1;align=center;verticalAlign=middle;resizable=0;points=[];autosize=1;strokeColor=none;fillColor=none;" vertex="1" parent="1">
          <mxGeometry x="458" y="241" width="80" height="30" as="geometry" />
        </mxCell>
        <mxCell id="Tyzu09ZwuiHIX_BPrVbN-19" value="&lt;span style=&quot;font-size: 10px;&quot;&gt;Chunked&lt;/span&gt;&lt;div&gt;&lt;span style=&quot;font-size: 10px;&quot;&gt;Data&lt;/span&gt;&lt;/div&gt;" style="text;html=1;align=right;verticalAlign=middle;resizable=0;points=[];autosize=1;strokeColor=none;fillColor=none;" vertex="1" parent="1">
          <mxGeometry x="535" y="149" width="60" height="40" as="geometry" />
        </mxCell>
        <mxCell id="Tyzu09ZwuiHIX_BPrVbN-20" value="Raw Telemetric Logs" style="html=1;dashed=0;whiteSpace=wrap;shape=partialRectangle;right=0;left=0;" vertex="1" parent="1">
          <mxGeometry x="135" y="85" width="110" height="40" as="geometry" />
        </mxCell>
        <mxCell id="Tyzu09ZwuiHIX_BPrVbN-22" value="&lt;span style=&quot;font-size: 10px;&quot;&gt;Raw&lt;/span&gt;&lt;div&gt;&lt;span style=&quot;font-size: 10px;&quot;&gt;Data&lt;/span&gt;&lt;/div&gt;" style="text;html=1;align=center;verticalAlign=middle;resizable=0;points=[];autosize=1;strokeColor=none;fillColor=none;" vertex="1" parent="1">
          <mxGeometry x="191" y="147" width="40" height="40" as="geometry" />
        </mxCell>
        <mxCell id="Tyzu09ZwuiHIX_BPrVbN-23" value="Semantically Chunked Data" style="html=1;dashed=0;whiteSpace=wrap;shape=partialRectangle;right=0;left=0;" vertex="1" parent="1">
          <mxGeometry x="545" y="85" width="110" height="35" as="geometry" />
        </mxCell>
      </root>
    </mxGraphModel>
  </diagram>
</mxfile>
